<svg xmlns="http://www.w3.org/2000/svg" height="40" viewBox="0 -960 960 960" width="40"><path d="M480.314-367q54.936 0 93.811-39.189Q613-445.377 613-500.314q0-54.936-39.189-93.811Q534.623-633 479.686-633q-54.936 0-93.811 39.189Q347-554.623 347-499.686q0 54.936 39.189 93.811Q425.377-367 480.314-367Zm-.569-24.667q-45.245 0-76.662-31.671-31.416-31.672-31.416-76.917 0-45.245 31.671-76.662 31.672-31.416 76.917-31.416 45.245 0 76.662 31.671 31.416 31.672 31.416 76.917 0 45.245-31.671 76.662-31.672 31.416-76.917 31.416Zm.398 138.334q-123.476 0-226.31-67-102.833-67-156-179.667Q151-612.667 253.69-679.667q102.691-67 226.167-67t226.31 67q102.833 67 156 179.667Q809-387.333 706.31-320.333q-102.691 67-226.167 67ZM480-500Zm-.112 223.5q114.915 0 210.586-60.239T836.5-500q-50.355-103.022-145.914-163.261Q595.028-723.5 480.112-723.5q-114.915 0-210.586 60.239T123.5-500q50.355 103.022 145.914 163.261Q364.972-276.5 479.888-276.5Z"/></svg>