<svg xmlns="http://www.w3.org/2000/svg" height="40" viewBox="0 -960 960 960" width="40"><path d="m606.833-460-21.166-21.167q12.5-60-31.084-98.166Q511-617.5 461.167-605.667L440-626.591q8-2.909 17.75-4.659t22-1.75q56.521 0 94.885 38.365Q613-556.271 613-499.75q0 12.25-1.75 23T606.833-460Zm124.834 121.667-17.5-14.151q39.333-30.349 70.732-67.03t51.601-80.587q-49.833-102.732-145-163.066Q596.333-723.5 482-723.5q-31.5 0-62.75 4.917-31.25 4.916-57.75 13.25l-18.5-18.5q31.5-11.5 67.667-17.167 36.166-5.667 70.666-5.667 121.252 0 226.126 67.167 104.874 67.167 154.708 179.528Q840.5-454 808.417-413.583q-32.084 40.416-76.75 75.25ZM791.834-135.5 641-287.167q-24.167 13.167-66.42 23.5-42.254 10.334-94.58 10.334-123.39 0-226.778-67.167-103.389-67.167-155.389-179.288 24-53.08 64.667-100.313 40.667-47.232 86.5-78.732L134-793.5l16.667-16.667L808-152.833 791.834-135.5ZM265.167-662.167q-37.334 24.5-79 69.5-41.667 45-62.667 92.755 50.166 102.745 145.476 163.079 95.31 60.333 212.357 60.333 43 0 85.417-8.75T625.334-302l-80.057-79.667q-9.277 6-29.444 10.334Q495.667-367 479.787-367 424-367 385.5-405.542 347-444.083 347-499.957q0-14.579 4.333-34.352 4.334-19.774 10.334-31.191l-96.5-96.667Zm273 135.5ZM446-480.167Z"/></svg>